<svg width="24" height="24" viewBox="0 0 24 24" fill="none" xmlns="http://www.w3.org/2000/svg">
<path fill-rule="evenodd" clip-rule="evenodd" d="M14 5C14 6.10457 13.1046 7 12 7C10.8954 7 9.99999 6.10457 9.99999 5C9.99999 3.89543 10.8954 3 12 3C13.1046 3 14 3.89543 14 5ZM13 8.87398C14.7252 8.42994 16 6.86384 16 5C16 2.79086 14.2091 1 12 1C9.79085 1 7.99999 2.79086 7.99999 5C7.99999 6.86384 9.27477 8.42994 11 8.87398V11H8.99999V12H11V17.9393C8.28004 17.6026 6.39997 15.9106 5.90654 14H7.5C7.70601 14 7.8236 13.7648 7.7 13.6L5.2 10.2667C5.1 10.1333 4.9 10.1333 4.8 10.2667L2.3 13.6C2.17639 13.7648 2.29398 14 2.5 14H4.07625C4.5811 17.2606 7.52883 19.5705 11 19.9461V21.8462L11.6221 22.564C11.8215 22.7941 12.1785 22.7941 12.3778 22.564L13 21.8462V19.9461C16.4712 19.5705 19.4189 17.2606 19.9237 14H21.5C21.706 14 21.8236 13.7648 21.7 13.6L19.2 10.2667C19.1 10.1333 18.9 10.1333 18.8 10.2667L16.3 13.6C16.1764 13.7648 16.294 14 16.5 14H18.0935C17.6 15.9106 15.7199 17.6026 13 17.9393V12H15V11H13V8.87398Z" fill="#BBBBBB"/>
<mask id="path-2-outside-1_1:29" maskUnits="userSpaceOnUse" x="1.24954" y="0" width="22" height="24" fill="black">
<rect fill="white" x="1.24954" width="22" height="24"/>
<path fill-rule="evenodd" clip-rule="evenodd" d="M14 5C14 6.10457 13.1046 7 12 7C10.8954 7 9.99999 6.10457 9.99999 5C9.99999 3.89543 10.8954 3 12 3C13.1046 3 14 3.89543 14 5ZM13 8.87398C14.7252 8.42994 16 6.86384 16 5C16 2.79086 14.2091 1 12 1C9.79085 1 7.99999 2.79086 7.99999 5C7.99999 6.86384 9.27477 8.42994 11 8.87398V11H8.99999V12H11V17.9393C8.28004 17.6026 6.39997 15.9106 5.90654 14H7.5C7.70601 14 7.8236 13.7648 7.7 13.6L5.2 10.2667C5.1 10.1333 4.9 10.1333 4.8 10.2667L2.3 13.6C2.17639 13.7648 2.29398 14 2.5 14H4.07625C4.5811 17.2606 7.52883 19.5705 11 19.9461V21.8462L11.6221 22.564C11.8215 22.7941 12.1785 22.7941 12.3778 22.564L13 21.8462V19.9461C16.4712 19.5705 19.4189 17.2606 19.9237 14H21.5C21.706 14 21.8236 13.7648 21.7 13.6L19.2 10.2667C19.1 10.1333 18.9 10.1333 18.8 10.2667L16.3 13.6C16.1764 13.7648 16.294 14 16.5 14H18.0935C17.6 15.9106 15.7199 17.6026 13 17.9393V12H15V11H13V8.87398Z"/>
</mask>
<path d="M13 8.87398L12.8754 8.38976L12.5 8.48638V8.87398H13ZM11 8.87398H11.5V8.48638L11.1246 8.38976L11 8.87398ZM11 11V11.5H11.5V11H11ZM8.99999 11V10.5H8.49999V11H8.99999ZM8.99999 12H8.49999V12.5H8.99999V12ZM11 12H11.5V11.5H11V12ZM11 17.9393L10.9386 18.4355L11.5 18.505V17.9393H11ZM5.90654 14V13.5H5.261L5.42242 14.125L5.90654 14ZM7.7 13.6L7.3 13.9L7.3 13.9L7.7 13.6ZM5.2 10.2667L5.6 9.96667H5.6L5.2 10.2667ZM4.8 10.2667L4.4 9.96667H4.4L4.8 10.2667ZM2.3 13.6L2.7 13.9L2.7 13.9L2.3 13.6ZM4.07625 14L4.57036 13.9235L4.50479 13.5H4.07625V14ZM11 19.9461H11.5V19.4973L11.0538 19.449L11 19.9461ZM11 21.8462H10.5V22.0327L10.6221 22.1736L11 21.8462ZM11.6221 22.564L11.2443 22.8915L11.2443 22.8915L11.6221 22.564ZM12.3778 22.564L12.7557 22.8915H12.7557L12.3778 22.564ZM13 21.8462L13.3778 22.1736L13.5 22.0327V21.8462H13ZM13 19.9461L12.9462 19.449L12.5 19.4973V19.9461H13ZM19.9237 14V13.5H19.4952L19.4296 13.9235L19.9237 14ZM21.7 13.6L21.3 13.9V13.9L21.7 13.6ZM19.2 10.2667L19.6 9.96667V9.96667L19.2 10.2667ZM18.8 10.2667L19.2 10.5667V10.5667L18.8 10.2667ZM16.3 13.6L15.9 13.3L15.9 13.3L16.3 13.6ZM18.0935 14L18.5776 14.125L18.739 13.5H18.0935V14ZM13 17.9393H12.5V18.505L13.0614 18.4355L13 17.9393ZM13 12V11.5H12.5V12H13ZM15 12V12.5H15.5V12H15ZM15 11H15.5V10.5H15V11ZM13 11H12.5V11.5H13V11ZM12 7.5C13.3807 7.5 14.5 6.38071 14.5 5H13.5C13.5 5.82843 12.8284 6.5 12 6.5V7.5ZM9.49999 5C9.49999 6.38071 10.6193 7.5 12 7.5V6.5C11.1716 6.5 10.5 5.82843 10.5 5H9.49999ZM12 2.5C10.6193 2.5 9.49999 3.61929 9.49999 5H10.5C10.5 4.17157 11.1716 3.5 12 3.5V2.5ZM14.5 5C14.5 3.61929 13.3807 2.5 12 2.5V3.5C12.8284 3.5 13.5 4.17157 13.5 5H14.5ZM15.5 5C15.5 6.63017 14.385 8.0012 12.8754 8.38976L13.1246 9.3582C15.0654 8.85868 16.5 7.0975 16.5 5H15.5ZM12 1.5C13.933 1.5 15.5 3.067 15.5 5H16.5C16.5 2.51472 14.4853 0.5 12 0.5V1.5ZM8.49999 5C8.49999 3.067 10.067 1.5 12 1.5V0.5C9.51471 0.5 7.49999 2.51472 7.49999 5H8.49999ZM11.1246 8.38976C9.61494 8.0012 8.49999 6.63017 8.49999 5H7.49999C7.49999 7.0975 8.93459 8.85868 10.8754 9.3582L11.1246 8.38976ZM11.5 11V8.87398H10.5V11H11.5ZM8.99999 11.5H11V10.5H8.99999V11.5ZM9.49999 12V11H8.49999V12H9.49999ZM11 11.5H8.99999V12.5H11V11.5ZM11.5 17.9393V12H10.5V17.9393H11.5ZM5.42242 14.125C5.97526 16.2657 8.04892 18.0778 10.9386 18.4355L11.0614 17.4431C8.51116 17.1274 6.82468 15.5556 6.39065 13.875L5.42242 14.125ZM7.5 13.5H5.90654V14.5H7.5V13.5ZM7.3 13.9C7.17639 13.7352 7.29399 13.5 7.5 13.5V14.5C8.11803 14.5 8.47082 13.7944 8.09999 13.3L7.3 13.9ZM4.8 10.5667L7.3 13.9L8.1 13.3L5.6 9.96667L4.8 10.5667ZM5.2 10.5667C5.1 10.7 4.9 10.7 4.8 10.5667L5.6 9.96667C5.3 9.56667 4.7 9.56667 4.4 9.96667L5.2 10.5667ZM2.7 13.9L5.2 10.5667L4.4 9.96667L1.9 13.3L2.7 13.9ZM2.5 13.5C2.70601 13.5 2.8236 13.7352 2.7 13.9L1.9 13.3C1.52917 13.7944 1.88196 14.5 2.5 14.5V13.5ZM4.07625 13.5H2.5V14.5H4.07625V13.5ZM11.0538 19.449C7.75023 19.0915 5.03246 16.908 4.57036 13.9235L3.58214 14.0765C4.12974 17.6132 7.30743 20.0494 10.9462 20.4432L11.0538 19.449ZM11.5 21.8462V19.9461H10.5V21.8462H11.5ZM12 22.2366L11.3778 21.5187L10.6221 22.1736L11.2443 22.8915L12 22.2366ZM12 22.2366L12 22.2366L11.2443 22.8915C11.6431 23.3516 12.3569 23.3516 12.7557 22.8915L12 22.2366ZM12.6221 21.5187L12 22.2366L12.7557 22.8915L13.3778 22.1736L12.6221 21.5187ZM12.5 19.9461V21.8462H13.5V19.9461H12.5ZM19.4296 13.9235C18.9675 16.908 16.2498 19.0915 12.9462 19.449L13.0538 20.4432C16.6926 20.0494 19.8703 17.6132 20.4179 14.0765L19.4296 13.9235ZM21.5 13.5H19.9237V14.5H21.5V13.5ZM21.3 13.9C21.1764 13.7352 21.294 13.5 21.5 13.5V14.5C22.118 14.5 22.4708 13.7944 22.1 13.3L21.3 13.9ZM18.8 10.5667L21.3 13.9L22.1 13.3L19.6 9.96667L18.8 10.5667ZM19.2 10.5667C19.1 10.7 18.9 10.7 18.8 10.5667L19.6 9.96667C19.3 9.56667 18.7 9.56667 18.4 9.96667L19.2 10.5667ZM16.7 13.9L19.2 10.5667L18.4 9.96667L15.9 13.3L16.7 13.9ZM16.5 13.5C16.706 13.5 16.8236 13.7352 16.7 13.9L15.9 13.3C15.5292 13.7944 15.882 14.5 16.5 14.5V13.5ZM18.0935 13.5H16.5V14.5H18.0935V13.5ZM13.0614 18.4355C15.9511 18.0778 18.0247 16.2657 18.5776 14.125L17.6093 13.875C17.1753 15.5556 15.4888 17.1274 12.9386 17.4431L13.0614 18.4355ZM12.5 12V17.9393H13.5V12H12.5ZM15 11.5H13V12.5H15V11.5ZM14.5 11V12H15.5V11H14.5ZM13 11.5H15V10.5H13V11.5ZM12.5 8.87398V11H13.5V8.87398H12.5Z" fill="black" fill-opacity="0.5" mask="url(#path-2-outside-1_1:29)"/>
<mask id="path-4-inside-2_1:29" fill="white">
<path fill-rule="evenodd" clip-rule="evenodd" d="M14 5C14 6.10457 13.1046 7 12 7C10.8954 7 9.99999 6.10457 9.99999 5C9.99999 3.89543 10.8954 3 12 3C13.1046 3 14 3.89543 14 5ZM13 8.87398C14.7252 8.42994 16 6.86384 16 5C16 2.79086 14.2091 1 12 1C9.79085 1 7.99999 2.79086 7.99999 5C7.99999 6.86384 9.27477 8.42994 11 8.87398V11H8.99999V12H11V17.9393C8.28004 17.6026 6.39997 15.9106 5.90654 14H7.5C7.70601 14 7.8236 13.7648 7.7 13.6L5.2 10.2667C5.1 10.1333 4.9 10.1333 4.8 10.2667L2.3 13.6C2.17639 13.7648 2.29398 14 2.5 14H4.07625C4.5811 17.2606 7.52883 19.5705 11 19.9461V21.8462L11.6221 22.564C11.8215 22.7941 12.1785 22.7941 12.3778 22.564L13 21.8462V19.9461C16.4712 19.5705 19.4189 17.2606 19.9237 14H21.5C21.706 14 21.8236 13.7648 21.7 13.6L19.2 10.2667C19.1 10.1333 18.9 10.1333 18.8 10.2667L16.3 13.6C16.1764 13.7648 16.294 14 16.5 14H18.0935C17.6 15.9106 15.7199 17.6026 13 17.9393V12H15V11H13V8.87398Z"/>
</mask>
<path d="M13 8.87398L12.8754 8.38976L12.5 8.48638V8.87398H13ZM11 8.87398H11.5V8.48638L11.1246 8.38976L11 8.87398ZM11 11V11.5H11.5V11H11ZM8.99999 11V10.5H8.49999V11H8.99999ZM8.99999 12H8.49999V12.5H8.99999V12ZM11 12H11.5V11.5H11V12ZM11 17.9393L10.9386 18.4355L11.5 18.505V17.9393H11ZM5.90654 14V13.5H5.261L5.42242 14.125L5.90654 14ZM7.7 13.6L7.3 13.9L7.3 13.9L7.7 13.6ZM5.2 10.2667L5.6 9.96667H5.6L5.2 10.2667ZM4.8 10.2667L4.4 9.96667H4.4L4.8 10.2667ZM2.3 13.6L2.7 13.9L2.7 13.9L2.3 13.6ZM4.07625 14L4.57036 13.9235L4.50479 13.5H4.07625V14ZM11 19.9461H11.5V19.4973L11.0538 19.449L11 19.9461ZM11 21.8462H10.5V22.0327L10.6221 22.1736L11 21.8462ZM11.6221 22.564L11.2443 22.8915L11.2443 22.8915L11.6221 22.564ZM12.3778 22.564L12.7557 22.8915H12.7557L12.3778 22.564ZM13 21.8462L13.3778 22.1736L13.5 22.0327V21.8462H13ZM13 19.9461L12.9462 19.449L12.5 19.4973V19.9461H13ZM19.9237 14V13.5H19.4952L19.4296 13.9235L19.9237 14ZM21.7 13.6L21.3 13.9V13.9L21.7 13.6ZM19.2 10.2667L19.6 9.96667V9.96667L19.2 10.2667ZM18.8 10.2667L19.2 10.5667V10.5667L18.8 10.2667ZM16.3 13.6L15.9 13.3L15.9 13.3L16.3 13.6ZM18.0935 14L18.5776 14.125L18.739 13.5H18.0935V14ZM13 17.9393H12.5V18.505L13.0614 18.4355L13 17.9393ZM13 12V11.5H12.5V12H13ZM15 12V12.5H15.5V12H15ZM15 11H15.5V10.5H15V11ZM13 11H12.5V11.5H13V11ZM12 7.5C13.3807 7.5 14.5 6.38071 14.5 5H13.5C13.5 5.82843 12.8284 6.5 12 6.5V7.5ZM9.49999 5C9.49999 6.38071 10.6193 7.5 12 7.5V6.5C11.1716 6.5 10.5 5.82843 10.5 5H9.49999ZM12 2.5C10.6193 2.5 9.49999 3.61929 9.49999 5H10.5C10.5 4.17157 11.1716 3.5 12 3.5V2.5ZM14.5 5C14.5 3.61929 13.3807 2.5 12 2.5V3.5C12.8284 3.5 13.5 4.17157 13.5 5H14.5ZM15.5 5C15.5 6.63017 14.385 8.0012 12.8754 8.38976L13.1246 9.3582C15.0654 8.85868 16.5 7.0975 16.5 5H15.5ZM12 1.5C13.933 1.5 15.5 3.067 15.5 5H16.5C16.5 2.51472 14.4853 0.5 12 0.5V1.5ZM8.49999 5C8.49999 3.067 10.067 1.5 12 1.5V0.5C9.51471 0.5 7.49999 2.51472 7.49999 5H8.49999ZM11.1246 8.38976C9.61494 8.0012 8.49999 6.63017 8.49999 5H7.49999C7.49999 7.0975 8.93459 8.85868 10.8754 9.3582L11.1246 8.38976ZM11.5 11V8.87398H10.5V11H11.5ZM8.99999 11.5H11V10.5H8.99999V11.5ZM9.49999 12V11H8.49999V12H9.49999ZM11 11.5H8.99999V12.5H11V11.5ZM11.5 17.9393V12H10.5V17.9393H11.5ZM5.42242 14.125C5.97526 16.2657 8.04892 18.0778 10.9386 18.4355L11.0614 17.4431C8.51116 17.1274 6.82468 15.5556 6.39065 13.875L5.42242 14.125ZM7.5 13.5H5.90654V14.5H7.5V13.5ZM7.3 13.9C7.17639 13.7352 7.29399 13.5 7.5 13.5V14.5C8.11803 14.5 8.47082 13.7944 8.09999 13.3L7.3 13.9ZM4.8 10.5667L7.3 13.9L8.1 13.3L5.6 9.96667L4.8 10.5667ZM5.2 10.5667C5.1 10.7 4.9 10.7 4.8 10.5667L5.6 9.96667C5.3 9.56667 4.7 9.56667 4.4 9.96667L5.2 10.5667ZM2.7 13.9L5.2 10.5667L4.4 9.96667L1.9 13.3L2.7 13.9ZM2.5 13.5C2.70601 13.5 2.8236 13.7352 2.7 13.9L1.9 13.3C1.52917 13.7944 1.88196 14.5 2.5 14.5V13.5ZM4.07625 13.5H2.5V14.5H4.07625V13.5ZM11.0538 19.449C7.75023 19.0915 5.03246 16.908 4.57036 13.9235L3.58214 14.0765C4.12974 17.6132 7.30743 20.0494 10.9462 20.4432L11.0538 19.449ZM11.5 21.8462V19.9461H10.5V21.8462H11.5ZM12 22.2366L11.3778 21.5187L10.6221 22.1736L11.2443 22.8915L12 22.2366ZM12 22.2366L12 22.2366L11.2443 22.8915C11.6431 23.3516 12.3569 23.3516 12.7557 22.8915L12 22.2366ZM12.6221 21.5187L12 22.2366L12.7557 22.8915L13.3778 22.1736L12.6221 21.5187ZM12.5 19.9461V21.8462H13.5V19.9461H12.5ZM19.4296 13.9235C18.9675 16.908 16.2498 19.0915 12.9462 19.449L13.0538 20.4432C16.6926 20.0494 19.8703 17.6132 20.4179 14.0765L19.4296 13.9235ZM21.5 13.5H19.9237V14.5H21.5V13.5ZM21.3 13.9C21.1764 13.7352 21.294 13.5 21.5 13.5V14.5C22.118 14.5 22.4708 13.7944 22.1 13.3L21.3 13.9ZM18.8 10.5667L21.3 13.9L22.1 13.3L19.6 9.96667L18.8 10.5667ZM19.2 10.5667C19.1 10.7 18.9 10.7 18.8 10.5667L19.6 9.96667C19.3 9.56667 18.7 9.56667 18.4 9.96667L19.2 10.5667ZM16.7 13.9L19.2 10.5667L18.4 9.96667L15.9 13.3L16.7 13.9ZM16.5 13.5C16.706 13.5 16.8236 13.7352 16.7 13.9L15.9 13.3C15.5292 13.7944 15.882 14.5 16.5 14.5V13.5ZM18.0935 13.5H16.5V14.5H18.0935V13.5ZM13.0614 18.4355C15.9511 18.0778 18.0247 16.2657 18.5776 14.125L17.6093 13.875C17.1753 15.5556 15.4888 17.1274 12.9386 17.4431L13.0614 18.4355ZM12.5 12V17.9393H13.5V12H12.5ZM15 11.5H13V12.5H15V11.5ZM14.5 11V12H15.5V11H14.5ZM13 11.5H15V10.5H13V11.5ZM12.5 8.87398V11H13.5V8.87398H12.5Z" fill="url(#paint0_linear_1:29)" mask="url(#path-4-inside-2_1:29)"/>
<defs>
<linearGradient id="paint0_linear_1:29" x1="12" y1="1.40719e-08" x2="12" y2="24" gradientUnits="userSpaceOnUse">
<stop stop-color="white"/>
<stop offset="1" stop-color="white" stop-opacity="0"/>
</linearGradient>
</defs>
</svg>
