<svg width="24" height="24" viewBox="0 0 24 24" fill="none" xmlns="http://www.w3.org/2000/svg">
<path d="M11 8H13V21.8462L12.1889 22.782C12.0892 22.897 11.9108 22.897 11.8111 22.782L11 21.8462V8Z" fill="black"/>
<circle cx="12" cy="5" r="3" stroke="black" stroke-width="2"/>
<path d="M19 13C19 16.3137 15.9375 19 12 19C8.0625 19 5 16.3137 5 13" stroke="black" stroke-width="2"/>
<rect x="9" y="11" width="6" height="2" fill="black"/>
<path d="M4.8 10.2667C4.9 10.1333 5.1 10.1333 5.2 10.2667L7.7 13.6C7.82361 13.7648 7.70601 14 7.5 14H2.5C2.29399 14 2.17639 13.7648 2.3 13.6L4.8 10.2667Z" fill="black"/>
<path d="M18.8 10.2667C18.9 10.1333 19.1 10.1333 19.2 10.2667L21.7 13.6C21.8236 13.7648 21.706 14 21.5 14H16.5C16.294 14 16.1764 13.7648 16.3 13.6L18.8 10.2667Z" fill="black"/>
</svg>
